<?xml version="1.0" standalone="no"?>
<!DOCTYPE svg PUBLIC "-//W3C//DTD SVG 20010904//EN"
 "http://www.w3.org/TR/2001/REC-SVG-20010904/DTD/svg10.dtd">
<svg version="1.0" xmlns="http://www.w3.org/2000/svg"
 width="435.000000pt" height="135.000000pt" viewBox="0 0 435.000000 135.000000"
 preserveAspectRatio="xMidYMid meet">

<g transform="translate(0.000000,135.000000) scale(0.100000,-0.100000)"
fill="#000000" stroke="none">
<path d="M725 1199 l-360 -98 208 0 207 -1 0 -105 0 -105 -80 0 -80 0 0 -105
0 -105 80 0 80 0 0 -105 0 -105 -80 0 -80 0 0 -180 0 -180 -150 0 c-93 0 -150
-4 -150 -10 0 -5 9 -10 21 -10 13 0 23 -10 30 -29 l10 -29 117 30 c64 16 144
38 177 47 33 10 202 56 375 101 173 46 319 86 323 90 5 4 -17 100 -47 212 -32
119 -56 226 -56 255 0 64 -24 154 -54 201 -13 20 -41 103 -62 185 -29 111 -42
147 -54 146 -8 -1 -177 -46 -375 -100z m224 -109 c142 -15 216 -56 264 -145
19 -34 22 -56 22 -146 0 -98 -2 -110 -30 -164 -54 -105 -164 -165 -303 -165
l-62 0 0 114 c0 103 2 115 18 121 53 16 53 144 0 160 -16 6 -18 18 -18 121 0
63 3 114 8 114 4 0 49 -5 101 -10z"/>
<path d="M3390 1203 c-25 -9 -40 -35 -40 -70 0 -30 -3 -33 -30 -33 -20 0 -30
-5 -30 -15 0 -10 10 -15 30 -15 l30 0 0 -100 c0 -93 1 -100 20 -100 19 0 20 7
20 100 l0 100 35 0 c24 0 35 5 35 15 0 10 -11 15 -35 15 -30 0 -35 3 -35 24 0
35 27 59 57 51 20 -5 24 -2 21 12 -3 18 -48 28 -78 16z"/>
<path d="M1680 1035 l0 -165 25 0 c24 0 25 2 25 75 l0 74 92 3 c79 3 93 6 96
21 3 15 -6 17 -92 17 l-96 0 0 50 0 50 100 0 c93 0 100 1 100 20 0 19 -7 20
-125 20 l-125 0 0 -165z"/>
<path d="M2200 1175 c0 -18 5 -25 20 -25 15 0 20 7 20 25 0 18 -5 25 -20 25
-15 0 -20 -7 -20 -25z"/>
<path d="M3510 1174 c0 -21 4 -25 23 -22 14 2 23 11 25 26 3 18 -1 22 -22 22
-21 0 -26 -5 -26 -26z"/>
<path d="M3205 1160 c-25 -26 -26 -30 -9 -30 10 0 35 14 54 30 35 29 35 29 9
30 -15 0 -36 -12 -54 -30z"/>
<path d="M2098 1103 c-14 -2 -32 -11 -38 -19 -16 -18 -30 -18 -30 1 0 8 -9 15
-20 15 -19 0 -20 -7 -20 -115 l0 -115 25 0 c25 0 25 1 25 79 0 71 2 82 22 95
12 9 35 16 50 16 23 0 28 4 28 25 0 14 -3 24 -7 24 -5 -1 -20 -4 -35 -6z"/>
<path d="M2394 1099 c-51 -15 -79 -53 -79 -109 0 -40 5 -54 29 -79 36 -37 87
-47 144 -28 l42 15 0 -28 c0 -41 -28 -60 -88 -60 -44 0 -54 4 -68 25 -17 26
-54 34 -54 12 0 -71 160 -101 228 -42 26 23 27 26 30 159 3 130 3 136 -16 136
-11 0 -22 -6 -25 -12 -3 -10 -9 -10 -28 -1 -36 18 -80 23 -115 12z m114 -52
c24 -22 30 -74 12 -107 -15 -28 -67 -42 -107 -29 -39 12 -53 35 -53 81 0 43
17 66 55 77 38 10 64 4 93 -22z"/>
<path d="M2755 1103 c-48 -10 -77 -28 -90 -54 -20 -37 -19 -109 1 -138 35 -49
126 -65 191 -34 80 38 82 172 3 213 -21 11 -81 18 -105 13z m90 -58 c38 -37
35 -95 -7 -130 -26 -22 -39 -26 -66 -21 -44 7 -70 31 -78 71 -6 35 8 71 35 92
28 22 89 16 116 -12z"/>
<path d="M3087 1100 c-16 -5 -35 -14 -43 -21 -11 -9 -14 -8 -14 5 0 11 -9 16
-26 16 -20 0 -25 -4 -20 -16 3 -9 6 -60 6 -115 0 -90 2 -99 19 -99 16 0 19 9
23 74 4 85 21 113 72 118 23 2 31 8 31 22 0 23 -11 27 -48 16z"/>
<path d="M4015 1101 c-74 -18 -95 -44 -95 -118 0 -58 19 -90 66 -109 101 -42
204 15 204 113 0 33 -31 88 -57 101 -28 15 -85 21 -118 13z m100 -56 c38 -37
35 -95 -7 -130 -77 -65 -181 22 -134 113 18 35 28 40 79 41 28 1 45 -6 62 -24z"/>
<path d="M2200 985 c0 -108 1 -115 20 -115 19 0 20 7 20 115 0 108 -1 115 -20
115 -19 0 -20 -7 -20 -115z"/>
<path d="M3190 985 l0 -115 25 0 25 0 0 115 0 115 -25 0 -25 0 0 -115z"/>
<path d="M3510 985 l0 -115 25 0 25 0 0 115 0 115 -25 0 -25 0 0 -115z"/>
<path d="M3681 1086 c-34 -19 -50 -54 -51 -107 0 -56 25 -93 76 -109 71 -24
164 12 164 62 0 24 -37 24 -45 0 -6 -20 -45 -42 -74 -42 -30 0 -70 39 -77 74
-7 38 15 90 41 100 35 13 85 6 97 -14 13 -21 58 -28 58 -10 0 6 -11 22 -25 35
-20 21 -34 25 -82 25 -32 -1 -69 -7 -82 -14z"/>
<path d="M190 1057 c-41 -11 -76 -21 -77 -22 -4 -2 168 -639 173 -644 2 -2 4
152 4 342 0 272 -3 347 -12 346 -7 -1 -47 -11 -88 -22z"/>
<path d="M2955 753 c-49 -6 -127 -34 -167 -59 -104 -66 -153 -222 -113 -360
13 -47 27 -69 70 -111 77 -75 154 -97 313 -91 198 8 284 60 320 191 l10 37
-106 0 -107 0 -15 -32 c-24 -50 -63 -73 -124 -73 -108 2 -161 62 -161 185 0
87 20 131 75 167 68 46 175 23 200 -43 9 -23 13 -24 115 -24 94 0 105 2 104
18 -2 61 -57 134 -124 163 -70 31 -194 45 -290 32z"/>
<path d="M3711 749 c-168 -28 -264 -136 -264 -299 -1 -145 43 -222 156 -279
61 -31 79 -35 173 -39 283 -13 427 91 427 308 0 123 -55 225 -146 271 -83 43
-223 58 -346 38z m204 -138 c69 -38 101 -197 57 -281 -27 -52 -92 -82 -165
-78 -104 7 -147 62 -147 188 0 83 18 130 62 163 50 37 134 41 193 8z"/>
<path d="M1680 446 l0 -306 105 0 105 0 0 110 0 110 113 0 c61 0 129 5 150 11
52 14 114 72 127 117 29 104 -2 197 -78 234 -44 22 -60 23 -284 26 l-238 4 0
-306z m382 157 c10 -9 18 -30 18 -49 0 -48 -28 -64 -117 -64 l-73 0 0 65 0 65
77 0 c57 0 81 -4 95 -17z"/>
<path d="M2370 445 l0 -305 100 0 100 0 0 305 0 305 -100 0 -100 0 0 -305z"/>
</g>
</svg>
